# Blender 3.6.3
# www.blender.org
mtllib screen.mtl
o Cube
v -4.793880 -0.176173 2.900965
v -4.793880 0.176173 2.900965
v -4.793880 -0.176173 -2.900965
v -4.793880 0.176173 -2.900965
v 4.793880 -0.176173 2.900965
v 4.793880 0.176173 2.900965
v 4.793880 -0.176173 -2.900965
v 4.793880 0.176173 -2.900965
vn -1.0000 -0.0000 -0.0000
vn -0.0000 -0.0000 -1.0000
vn 1.0000 -0.0000 -0.0000
vn -0.0000 -0.0000 1.0000
vn -0.0000 -1.0000 -0.0000
vn -0.0000 1.0000 -0.0000
vt 0.601700 -0.066173
vt 0.573870 -0.066173
vt 0.573870 -0.524428
vt 0.601700 -0.524428
vt 1.043916 0.760592
vt 1.016086 0.760592
vt 1.016086 0.003319
vt 1.043916 0.003319
vt 1.302044 0.843490
vt 1.274215 0.843490
vt 1.274215 0.385234
vt 1.302044 0.385234
vt -0.046814 0.727400
vt -0.074643 0.727400
vt -0.074643 -0.029873
vt -0.046814 -0.029873
vt 0.994070 0.004398
vt 0.994070 0.998493
vt 0.008529 0.998493
vt 0.008529 0.004398
vt 0.866724 1.018984
vt 0.866724 1.776257
vt 0.408468 1.776257
vt 0.408468 1.018984
s 0
f 1/1/1 2/2/1 4/3/1 3/4/1
f 3/5/2 4/6/2 8/7/2 7/8/2
f 7/9/3 8/10/3 6/11/3 5/12/3
f 5/13/4 6/14/4 2/15/4 1/16/4
f 3/17/5 7/18/5 5/19/5 1/20/5
f 8/21/6 4/22/6 2/23/6 6/24/6
